<svg width="27" height="32" viewBox="0 0 27 32" fill="none" xmlns="http://www.w3.org/2000/svg">
<path fill-rule="evenodd" clip-rule="evenodd" d="M13.5 0L1.17458 2.65604C0.841484 2.7278 0.543411 2.90759 0.330002 3.16571C0.116386 3.42373 0 3.74476 0 4.07566V18.6036C0.000411987 20.0401 0.366257 21.4543 1.06561 22.7207C1.76475 23.987 2.77535 25.0665 4.00802 25.8633L13.5 32L22.992 25.8633C24.2249 25.0664 25.2357 23.9866 25.9348 22.72C26.6339 21.4533 26.9998 20.0389 27 18.6022V4.07566C27 3.74476 26.8836 3.42373 26.67 3.16571C26.4566 2.90759 26.1585 2.7278 25.8254 2.65604L13.5 0ZM13.5 1.68421L2.7152 4.06065C2.42372 4.1249 2.16314 4.28577 1.9763 4.51665C1.78947 4.74764 1.6875 5.03475 1.6875 5.3308V18.3296C1.68791 19.6148 2.00803 20.8801 2.61983 22.0133C3.23163 23.1463 4.11596 24.1122 5.19454 24.825L13.5 30.3158L21.8055 24.825C22.8842 24.112 23.7688 23.146 24.3804 22.0126C24.9922 20.8793 25.3125 19.6137 25.3125 18.3282V5.3308C25.3125 5.03475 25.2105 4.74764 25.0237 4.51665C24.8369 4.28577 24.5763 4.1249 24.2848 4.06065L13.5 1.68421Z" fill="#d0b089"/>
<path fill-rule="evenodd" clip-rule="evenodd" d="M3.91357 5.15796L13.5 3L23.0864 5.15796C23.3455 5.21631 23.5771 5.36243 23.7434 5.57214C23.9094 5.78186 24 6.0426 24 6.3114V18.1143C24 19.2816 23.7153 20.4308 23.1716 21.46C22.6277 22.4891 21.8416 23.3665 20.8826 24.0139L13.5 29L6.11743 24.0139C5.15869 23.3666 4.37256 22.4895 3.82886 21.4606C3.28491 20.4316 3.00024 19.2826 3 18.1155V6.3114C3 6.0426 3.09058 5.78186 3.25659 5.57214C3.42285 5.36243 3.65454 5.21631 3.91357 5.15796ZM8.5 15L10 13.5L13.5 17L19.5 11L21 12.5L13.5 20L8.5 15Z" fill="#d0b089"/>
</svg>
