<svg width="27" height="32" viewBox="0 0 27 32" fill="none" xmlns="http://www.w3.org/2000/svg">
<path d="M3.9135 5.158L13.5 3L23.0865 5.158C23.3456 5.21634 23.5773 5.36241 23.7433 5.57211C23.9094 5.78182 24 6.04261 24 6.31145V18.1143C23.9999 19.2816 23.7153 20.4308 23.1715 21.46C22.6277 22.4892 21.8415 23.3664 20.8827 24.0139L13.5 29L6.11733 24.0139C5.15865 23.3665 4.37254 22.4895 3.82874 21.4605C3.28494 20.4316 3.00028 19.2826 3 18.1155V6.31145C3.00005 6.04261 3.09058 5.78182 3.25665 5.57211C3.42273 5.36241 3.65443 5.21634 3.9135 5.158ZM13.5 17.7727L16.9288 19.5986L16.2743 15.7317L19.0475 12.9923L15.215 12.4274L13.5 8.90909L11.785 12.4274L7.9525 12.9923L10.7257 15.7317L10.0723 19.5986L13.5 17.7727Z" fill="#d0b089"/>
<path fill-rule="evenodd" clip-rule="evenodd" d="M13.5 0L1.17458 2.65604C0.841484 2.7278 0.543411 2.90759 0.330002 3.16571C0.116386 3.42373 0 3.74476 0 4.07566V18.6036C0.000411987 20.0401 0.366257 21.4543 1.06561 22.7207C1.76475 23.987 2.77535 25.0665 4.00802 25.8633L13.5 32L22.992 25.8633C24.2249 25.0664 25.2357 23.9866 25.9348 22.72C26.6339 21.4533 26.9998 20.0389 27 18.6022V4.07566C27 3.74476 26.8836 3.42373 26.67 3.16571C26.4566 2.90759 26.1585 2.7278 25.8254 2.65604L13.5 0ZM13.5 1.68421L2.7152 4.06065C2.42372 4.1249 2.16314 4.28577 1.9763 4.51665C1.78947 4.74764 1.6875 5.03475 1.6875 5.3308V18.3296C1.68791 19.6148 2.00803 20.8801 2.61983 22.0133C3.23163 23.1463 4.11596 24.1122 5.19454 24.825L13.5 30.3158L21.8055 24.825C22.8842 24.112 23.7688 23.146 24.3804 22.0126C24.9922 20.8793 25.3125 19.6137 25.3125 18.3282V5.3308C25.3125 5.03475 25.2105 4.74764 25.0237 4.51665C24.8369 4.28577 24.5763 4.1249 24.2848 4.06065L13.5 1.68421Z" fill="#d0b089"/>
</svg>
