<?xml version="1.0" encoding="utf-8"?>
<!DOCTYPE svg PUBLIC "-//W3C//DTD SVG 1.1//EN" "http://www.w3.org/Graphics/SVG/1.1/DTD/svg11.dtd">
<svg version="1.1" xmlns="http://www.w3.org/2000/svg" xmlns:xlink="http://www.w3.org/1999/xlink" x="0px" y="0px" viewBox="0 0 256 256" enable-background="new 0 0 256 256" xml:space="preserve">
<metadata> Svg Vector Icons : http://www.onlinewebfonts.com/icon </metadata>
<g><g><path fill="#d0b089" d="M128,75.1c-39.3,0-71.2,32-71.2,71.2c0,39.3,31.9,71.2,71.2,71.2s71.2-31.9,71.2-71.2C199.2,107,167.3,75.1,128,75.1z M140.4,153.3L140.4,153.3c-2.5,4.3-7.1,7.2-12.4,7.2c-7.9,0-14.2-6.4-14.2-14.2c0-5,2.5-9.3,6.4-11.9l0-0.1l47-26.9L140.4,153.3z M205.3,83.4l9-9c1.6-1.6,1.6-4.2,0-5.8l-8.6-8.6c-1.6-1.6-4.2-1.6-5.8,0l-9,9c-14.7-12-32.8-19.8-52.8-21.9V30.3h12.2c4.5,0,8.1-3.6,8.1-8.1v-4.1c0-4.5-3.6-8.1-8.1-8.1h-44.7c-4.5,0-8.1,3.6-8.1,8.1v4.1c0,4.5,3.6,8.1,8.1,8.1h12.2v16.8c-19.9,2-38,9.9-52.7,21.9l-9-9c-1.6-1.6-4.2-1.6-5.8,0l-8.6,8.6c-1.6,1.6-1.6,4.2,0,5.8l9,9c-14,17.2-22.4,39.1-22.4,62.9C28.3,201.4,73,246,128,246s99.7-44.6,99.7-99.7C227.7,122.4,219.3,100.5,205.3,83.4z M128,225.7c-43.7,0-79.3-35.6-79.3-79.3C48.7,102.6,84.2,67,128,67c43.7,0,79.3,35.6,79.3,79.3C207.3,190.1,171.7,225.7,128,225.7z"/></g></g>
</svg>