<svg xmlns="http://www.w3.org/2000/svg" viewBox="0 0 539.56 547.26"><g id="Layer_2" data-name="Layer 2"><g id="Layer_1-2" data-name="Layer 1"><path fill="#d0b089" d="M460.43,410.52c12.9,14,15.42,31.11,11.91,49.44-3.13,16.27-12.38,29-23,40.91-16.08,18-35.3,32-55.18,45.14-2.2,1.45-4.15,1.77-6.46.27-23.23-15.14-45.51-31.48-63.29-53.39-10.88-13.41-18.05-28.41-17.73-48.64-.06-20.33,10.8-38.24,29.3-44.65,17.51-6.06,33.32-2.49,46.74,10.8,7,6.92,6.91,7,13.95.3C415.47,392.77,443.76,392.45,460.43,410.52Zm19.24,68h59.89c0-115.2-67.89-214-164.65-256.31-23.36,29.24-61.74,48.31-105.13,48.31S188,251.45,164.65,222.21C67.89,264.48,0,363.32,0,478.52H302.94a77.67,77.67,0,0,1-11.85-43.4c-.07-23.56,13-44.32,35.16-51.75,21-7,40-5.73,56.08,9.68,8.39,8,8.3,8.11,16.74.34,22.56-20.78,56.48-18.31,76.48,2.64,15.48,16.22,18.5,36.05,14.29,57.3A76.05,76.05,0,0,1,479.67,478.52ZM270.59,229.33A114.67,114.67,0,1,0,155.93,114.67,114.66,114.66,0,0,0,270.59,229.33Z"/></g></g></svg>